<svg xmlns="http://www.w3.org/2000/svg" version="1.1" xmlns:xlink="http://www.w3.org/1999/xlink" xmlns:svgjs="http://svgjs.com/svgjs" width="1920" height="1080" preserveAspectRatio="none" viewBox="0 0 1920 1080"><g mask="url(&quot;#SvgjsMask2445&quot;)" fill="none"><rect width="1920" height="1080" x="0" y="0" fill="url(#SvgjsLinearGradient2446)"></rect><path d="M0 0L279.95 0L0 494.11z" fill="rgba(255, 255, 255, .1)"></path><path d="M0 494.11L279.95 0L974.03 0L0 548.78z" fill="rgba(255, 255, 255, .075)"></path><path d="M0 548.78L974.03 0L1417.33 0L0 593.16z" fill="rgba(255, 255, 255, .05)"></path><path d="M0 593.16L1417.33 0L1620.84 0L0 668.75z" fill="rgba(255, 255, 255, .025)"></path><path d="M1920 1080L987.31 1080L1920 578.2z" fill="rgba(0, 0, 0, .1)"></path><path d="M1920 578.2L987.31 1080L667.1399999999999 1080L1920 313.64000000000004z" fill="rgba(0, 0, 0, .075)"></path><path d="M1920 313.64L667.1399999999999 1080L465.3499999999999 1080L1920 162.73999999999998z" fill="rgba(0, 0, 0, .05)"></path><path d="M1920 162.74L465.3499999999999 1080L296.4099999999999 1080L1920 132.20000000000002z" fill="rgba(0, 0, 0, .025)"></path></g><defs><mask id="SvgjsMask2445"><rect width="1920" height="1080" fill="#ffffff"></rect></mask><linearGradient x1="89.06%" y1="119.44%" x2="10.94%" y2="-19.44%" gradientUnits="userSpaceOnUse" id="SvgjsLinearGradient2446"><stop stop-color="rgba(99, 146, 194, 1)" offset="0"></stop><stop stop-color="rgba(101, 127, 169, 1)" offset="1"></stop></linearGradient></defs></svg>